<svg width="38" height="32" viewBox="0 0 38 32" fill="none" xmlns="http://www.w3.org/2000/svg">
<path d="M20.9467 16.9468C22.2539 15.9183 23.208 14.508 23.6763 12.912C24.1446 11.316 24.1039 9.61377 23.5597 8.04204C23.0155 6.47031 21.995 5.10727 20.6401 4.14256C19.2852 3.17784 17.6633 2.65942 16 2.65942C14.3367 2.65942 12.7148 3.17784 11.3599 4.14256C10.005 5.10727 8.98446 6.47031 8.44028 8.04204C7.8961 9.61377 7.85535 11.316 8.32368 12.912C8.79201 14.508 9.74614 15.9183 11.0533 16.9468C8.81343 17.8441 6.85905 19.3326 5.39852 21.2533C3.93799 23.1741 3.02608 25.4552 2.76 27.8534C2.74074 28.0285 2.75615 28.2057 2.80536 28.3748C2.85457 28.544 2.93662 28.7018 3.04681 28.8392C3.26935 29.1167 3.59304 29.2945 3.94666 29.3334C4.30028 29.3723 4.65488 29.2691 4.93243 29.0466C5.20998 28.8241 5.38776 28.5004 5.42666 28.1468C5.71944 25.5403 6.96224 23.1332 8.91762 21.3851C10.873 19.6371 13.4039 18.6708 16.0267 18.6708C18.6495 18.6708 21.1803 19.6371 23.1357 21.3851C25.0911 23.1332 26.3339 25.5403 26.6267 28.1468C26.6629 28.4744 26.8192 28.777 27.0655 28.9961C27.3117 29.2153 27.6304 29.3354 27.96 29.3334H28.1067C28.4562 29.2932 28.7756 29.1165 28.9954 28.8418C29.2152 28.567 29.3175 28.2166 29.28 27.8668C29.0127 25.4617 28.0958 23.1747 26.6278 21.251C25.1598 19.3273 23.1959 17.8394 20.9467 16.9468ZM16 16.0001C14.9452 16.0001 13.914 15.6873 13.037 15.1013C12.1599 14.5152 11.4763 13.6823 11.0726 12.7077C10.669 11.7332 10.5634 10.6608 10.7691 9.62627C10.9749 8.59171 11.4829 7.6414 12.2288 6.89552C12.9746 6.14964 13.9249 5.64169 14.9595 5.4359C15.9941 5.23011 17.0664 5.33573 18.041 5.73939C19.0155 6.14306 19.8485 6.82665 20.4345 7.70371C21.0205 8.58077 21.3333 9.61192 21.3333 10.6668C21.3333 12.0812 20.7714 13.4378 19.7712 14.438C18.771 15.4382 17.4145 16.0001 16 16.0001Z" fill="black"/>
<path d="M32 10C31.0111 10 30.0444 10.2932 29.2222 10.8427C28.3999 11.3921 27.759 12.173 27.3806 13.0866C27.0022 14.0002 26.9031 15.0055 27.0961 15.9755C27.289 16.9454 27.7652 17.8363 28.4645 18.5355C29.1637 19.2348 30.0546 19.711 31.0246 19.9039C31.9945 20.0969 32.9998 19.9978 33.9134 19.6194C34.827 19.241 35.6079 18.6001 36.1573 17.7779C36.7068 16.9556 37 15.9889 37 15C37 14.3434 36.8707 13.6932 36.6194 13.0866C36.3681 12.48 35.9998 11.9288 35.5355 11.4645C35.0712 11.0002 34.52 10.6319 33.9134 10.3806C33.3068 10.1293 32.6566 10 32 10ZM32 19C31.2089 19 30.4355 18.7654 29.7777 18.3259C29.1199 17.8864 28.6072 17.2616 28.3045 16.5307C28.0017 15.7998 27.9225 14.9956 28.0769 14.2196C28.2312 13.4437 28.6122 12.731 29.1716 12.1716C29.731 11.6122 30.4437 11.2312 31.2196 11.0769C31.9956 10.9225 32.7998 11.0017 33.5307 11.3045C34.2616 11.6072 34.8864 12.1199 35.3259 12.7777C35.7654 13.4355 36 14.2089 36 15C36 16.0609 35.5786 17.0783 34.8284 17.8284C34.0783 18.5786 33.0609 19 32 19ZM34 14.5H30C29.8674 14.5 29.7402 14.5527 29.6464 14.6464C29.5527 14.7402 29.5 14.8674 29.5 15C29.5 15.1326 29.5527 15.2598 29.6464 15.3536C29.7402 15.4473 29.8674 15.5 30 15.5H34C34.1326 15.5 34.2598 15.4473 34.3536 15.3536C34.4473 15.2598 34.5 15.1326 34.5 15C34.5 14.8674 34.4473 14.7402 34.3536 14.6464C34.2598 14.5527 34.1326 14.5 34 14.5Z" fill="black"/>
</svg>
