<?xml version="1.0" encoding="UTF-8" standalone="no"?>
<svg
   width="32"
   height="32"
   viewBox="0 0 32 32"
   fill="none"
   version="1.1"
   id="svg834"
   sodipodi:docname="Delete.svg"
   inkscape:version="1.1.2 (b8e25be833, 2022-02-05)"
   xmlns:inkscape="http://www.inkscape.org/namespaces/inkscape"
   xmlns:sodipodi="http://sodipodi.sourceforge.net/DTD/sodipodi-0.dtd"
   xmlns="http://www.w3.org/2000/svg"
   xmlns:svg="http://www.w3.org/2000/svg">
  <defs
     id="defs838" />
  <sodipodi:namedview
     id="namedview836"
     pagecolor="#ffffff"
     bordercolor="#666666"
     borderopacity="1.0"
     inkscape:pageshadow="2"
     inkscape:pageopacity="0.0"
     inkscape:pagecheckerboard="0"
     showgrid="false"
     inkscape:zoom="25.809398"
     inkscape:cx="14.084017"
     inkscape:cy="17.164291"
     inkscape:window-width="2560"
     inkscape:window-height="1377"
     inkscape:window-x="-2568"
     inkscape:window-y="-8"
     inkscape:window-maximized="1"
     inkscape:current-layer="svg834" />
  <path
     d="M 19.286843,15.997928 29.310465,5.9961981 c 0.439003,-0.438887 0.68569,-1.0343922 0.68569,-1.6552512 0,-0.6208592 -0.247038,-1.2157523 -0.686041,-1.6547618 C 28.871287,2.2471756 28.276335,2 27.655509,2 27.034681,2 26.439379,2.2466336 26.000379,2.6856431 L 16.000009,12.710645 5.9996404,2.6856431 C 5.5606382,2.2466336 4.9653716,2 4.3445969,2 3.7238223,2 3.1284856,2.2466336 2.6895359,2.6856431 2.2505687,3.1246525 2.0039687,3.7200877 2.0039687,4.3409469 c 0,0.620859 0.2466,1.2163642 0.6855672,1.6552512 L 12.713175,15.997928 2.6895359,25.999657 C 2.4710313,26.216478 2.2976159,26.474214 2.1792723,26.758355 2.0609288,27.042495 2,27.347268 2,27.655014 c 0,0.307745 0.060929,0.612518 0.1792723,0.896659 0.1183436,0.283964 0.291759,0.541876 0.5102636,0.758697 0.2167038,0.218393 0.4745106,0.39185 0.7585769,0.510228 C 3.7321793,29.938975 4.0368758,30 4.3445969,30 4.6523355,30 4.9570147,29.93897 5.241081,29.820598 5.5251474,29.70222 5.783024,29.528763 5.9996404,29.31037 L 16.000009,19.28521 26.000379,29.31037 c 0.21679,0.218393 0.474491,0.39185 0.758593,0.510228 C 27.043073,29.938975 27.347805,30 27.655509,30 c 0.307703,0 0.612436,-0.06103 0.896536,-0.179402 0.283927,-0.118378 0.541803,-0.291835 0.75842,-0.510228 0.218539,-0.216821 0.391973,-0.474733 0.510333,-0.758697 C 29.93916,28.267532 30,27.962759 30,27.655014 c 0,-0.307746 -0.06084,-0.612519 -0.179202,-0.896659 -0.11836,-0.284141 -0.291794,-0.541877 -0.510333,-0.758698 z"
     fill="#000000"
     id="path832"
     sodipodi:nodetypes="ccscscccscscccssccssscccsscccsscc"
     style="fill:#ff0000;fill-opacity:0.6064257;stroke-width:1.74843" />
</svg>
