<svg width="38" height="32" viewBox="0 0 38 32" fill="none" xmlns="http://www.w3.org/2000/svg">
<path d="M20.9467 16.9468C22.2539 15.9183 23.208 14.508 23.6763 12.912C24.1446 11.316 24.1039 9.61377 23.5597 8.04204C23.0155 6.47031 21.995 5.10727 20.6401 4.14256C19.2852 3.17784 17.6633 2.65942 16 2.65942C14.3367 2.65942 12.7148 3.17784 11.3599 4.14256C10.005 5.10727 8.98446 6.47031 8.44028 8.04204C7.8961 9.61377 7.85535 11.316 8.32368 12.912C8.79201 14.508 9.74614 15.9183 11.0533 16.9468C8.81343 17.8441 6.85905 19.3326 5.39852 21.2533C3.93799 23.1741 3.02608 25.4552 2.76 27.8534C2.74074 28.0285 2.75615 28.2057 2.80536 28.3748C2.85457 28.544 2.93662 28.7018 3.04681 28.8392C3.26935 29.1167 3.59304 29.2945 3.94666 29.3334C4.30028 29.3723 4.65488 29.2691 4.93243 29.0466C5.20998 28.8241 5.38776 28.5004 5.42666 28.1468C5.71944 25.5403 6.96224 23.1332 8.91762 21.3851C10.873 19.6371 13.4039 18.6708 16.0267 18.6708C18.6495 18.6708 21.1803 19.6371 23.1357 21.3851C25.0911 23.1332 26.3339 25.5403 26.6267 28.1468C26.6629 28.4744 26.8192 28.777 27.0655 28.9961C27.3117 29.2153 27.6304 29.3354 27.96 29.3334H28.1067C28.4562 29.2932 28.7756 29.1165 28.9954 28.8418C29.2152 28.567 29.3175 28.2166 29.28 27.8668C29.0127 25.4617 28.0958 23.1747 26.6278 21.251C25.1598 19.3273 23.1959 17.8394 20.9467 16.9468ZM16 16.0001C14.9452 16.0001 13.914 15.6873 13.037 15.1013C12.1599 14.5152 11.4763 13.6823 11.0726 12.7077C10.669 11.7332 10.5634 10.6608 10.7691 9.62627C10.9749 8.59171 11.4829 7.6414 12.2288 6.89552C12.9746 6.14964 13.9249 5.64169 14.9595 5.4359C15.9941 5.23011 17.0664 5.33573 18.041 5.73939C19.0155 6.14306 19.8485 6.82665 20.4345 7.70371C21.0205 8.58077 21.3333 9.61192 21.3333 10.6668C21.3333 12.0812 20.7714 13.4378 19.7712 14.438C18.771 15.4382 17.4145 16.0001 16 16.0001Z" fill="black"/>
<path d="M32.705 15.0001L34.855 12.8551C34.9491 12.7609 35.002 12.6332 35.002 12.5001C35.002 12.3669 34.9491 12.2392 34.855 12.1451C34.7608 12.0509 34.6331 11.998 34.5 11.998C34.3668 11.998 34.2391 12.0509 34.145 12.1451L32 14.2951L29.855 12.1451C29.7608 12.0509 29.6331 11.998 29.5 11.998C29.3668 11.998 29.2391 12.0509 29.145 12.1451C29.0508 12.2392 28.9979 12.3669 28.9979 12.5001C28.9979 12.6332 29.0508 12.7609 29.145 12.8551L31.295 15.0001L29.145 17.1451C29.0981 17.1916 29.0609 17.2469 29.0355 17.3078C29.0101 17.3687 28.9971 17.4341 28.9971 17.5001C28.9971 17.5661 29.0101 17.6315 29.0355 17.6924C29.0609 17.7533 29.0981 17.8086 29.145 17.8551C29.1915 17.902 29.2468 17.9392 29.3077 17.9645C29.3686 17.9899 29.434 18.003 29.5 18.003C29.566 18.003 29.6313 17.9899 29.6923 17.9645C29.7532 17.9392 29.8085 17.902 29.855 17.8551L32 15.7051L34.145 17.8551C34.1915 17.902 34.2468 17.9392 34.3077 17.9645C34.3686 17.9899 34.434 18.003 34.5 18.003C34.566 18.003 34.6313 17.9899 34.6923 17.9645C34.7532 17.9392 34.8085 17.902 34.855 17.8551C34.9018 17.8086 34.939 17.7533 34.9644 17.6924C34.9898 17.6315 35.0029 17.5661 35.0029 17.5001C35.0029 17.4341 34.9898 17.3687 34.9644 17.3078C34.939 17.2469 34.9018 17.1916 34.855 17.1451L32.705 15.0001Z" fill="black"/>
</svg>
