<svg width="25" height="25" viewBox="0 0 25 25" fill="none" xmlns="http://www.w3.org/2000/svg">
<path d="M17.7083 9.55208C17.5132 9.35807 17.2492 9.24918 16.974 9.24918C16.6988 9.24918 16.4348 9.35807 16.2396 9.55208L12.5 13.2396L8.8125 9.55208C8.61733 9.35807 8.35332 9.24918 8.07813 9.24918C7.80293 9.24918 7.53892 9.35807 7.34375 9.55208C7.24612 9.64892 7.16862 9.76413 7.11574 9.89107C7.06286 10.018 7.03563 10.1542 7.03563 10.2917C7.03563 10.4292 7.06286 10.5653 7.11574 10.6923C7.16862 10.8192 7.24612 10.9344 7.34375 11.0313L11.7604 15.4479C11.8573 15.5456 11.9725 15.623 12.0994 15.6759C12.2263 15.7288 12.3625 15.756 12.5 15.756C12.6375 15.756 12.7737 15.7288 12.9006 15.6759C13.0275 15.623 13.1427 15.5456 13.2396 15.4479L17.7083 11.0313C17.806 10.9344 17.8835 10.8192 17.9363 10.6923C17.9892 10.5653 18.0165 10.4292 18.0165 10.2917C18.0165 10.1542 17.9892 10.018 17.9363 9.89107C17.8835 9.76413 17.806 9.64892 17.7083 9.55208Z" fill="#005662"/>
</svg>
