<svg width="32" height="32" viewBox="0 0 32 32" fill="none" xmlns="http://www.w3.org/2000/svg">
<path d="M17.8799 16L23.6132 10.28C23.8643 10.029 24.0054 9.68843 24.0054 9.33336C24.0054 8.97829 23.8643 8.63776 23.6132 8.38669C23.3622 8.13562 23.0217 7.99457 22.6666 7.99457C22.3115 7.99457 21.971 8.13562 21.7199 8.38669L15.9999 14.12L10.2799 8.38669C10.0288 8.13562 9.68832 7.99457 9.33325 7.99457C8.97818 7.99457 8.63766 8.13562 8.38659 8.38669C8.13551 8.63776 7.99446 8.97829 7.99446 9.33336C7.99446 9.68843 8.13551 10.029 8.38659 10.28L14.1199 16L8.38659 21.72C8.26161 21.844 8.16242 21.9914 8.09473 22.1539C8.02704 22.3164 7.99219 22.4907 7.99219 22.6667C7.99219 22.8427 8.02704 23.017 8.09473 23.1795C8.16242 23.3419 8.26161 23.4894 8.38659 23.6134C8.51054 23.7383 8.658 23.8375 8.82048 23.9052C8.98296 23.9729 9.15724 24.0078 9.33325 24.0078C9.50927 24.0078 9.68354 23.9729 9.84602 23.9052C10.0085 23.8375 10.156 23.7383 10.2799 23.6134L15.9999 17.88L21.7199 23.6134C21.8439 23.7383 21.9913 23.8375 22.1538 23.9052C22.3163 23.9729 22.4906 24.0078 22.6666 24.0078C22.8426 24.0078 23.0169 23.9729 23.1794 23.9052C23.3418 23.8375 23.4893 23.7383 23.6132 23.6134C23.7382 23.4894 23.8374 23.3419 23.9051 23.1795C23.9728 23.017 24.0076 22.8427 24.0076 22.6667C24.0076 22.4907 23.9728 22.3164 23.9051 22.1539C23.8374 21.9914 23.7382 21.844 23.6132 21.72L17.8799 16Z" fill="black"/>
</svg>
