<svg width="22" height="18" viewBox="0 0 22 18" fill="none" xmlns="http://www.w3.org/2000/svg">
<path d="M6.88571 1C3.70759 1 1 3.36188 1 6.42938C1 8.54552 1.99697 10.3271 3.31827 11.8029C4.63504 13.2737 6.33388 14.5082 7.86968 15.5414L10.5195 17.3242C10.8097 17.5194 11.1903 17.5194 11.4805 17.3242L14.1303 15.5414C15.6661 14.5082 17.365 13.2737 18.6817 11.8029C20.003 10.3271 21 8.54552 21 6.42938C21 3.36188 18.2924 1 15.1143 1C13.476 1 12.0345 1.76348 11 2.75137C9.96553 1.76348 8.52397 1 6.88571 1Z" fill="#FF0000" fill-opacity="0.5" stroke="black" stroke-linecap="round" stroke-linejoin="round"/>
</svg>
