<svg width="56" height="56" viewBox="0 0 56 56" fill="none" xmlns="http://www.w3.org/2000/svg">
<g filter="url(#filter0_d_9_4)">
<path d="M43.0634 16.0554C42.8202 15.915 42.5443 15.841 42.2634 15.841C41.9825 15.841 41.7066 15.915 41.4634 16.0554L35.8154 18.8394C35.7698 17.5971 35.2441 16.421 34.3488 15.5585C33.4535 14.696 32.2585 14.2146 31.0154 14.2154H16.6154C15.3424 14.2154 14.1215 14.7211 13.2213 15.6213C12.3211 16.5215 11.8154 17.7424 11.8154 19.0154V28.6154C11.8154 29.8884 12.3211 31.1093 13.2213 32.0095C14.1215 32.9097 15.3424 33.4154 16.6154 33.4154H31.0154C32.2585 33.4162 33.4535 32.9347 34.3488 32.0723C35.2441 31.2098 35.7698 30.0337 35.8154 28.7914L41.5114 31.6394C41.7295 31.7512 41.9703 31.8114 42.2154 31.8154C42.515 31.8164 42.8088 31.7332 43.0634 31.5754C43.294 31.4313 43.484 31.2308 43.6156 30.9928C43.7472 30.7549 43.8159 30.4873 43.8154 30.2154V17.4154C43.8159 17.1435 43.7472 16.8759 43.6156 16.638C43.484 16.4 43.294 16.1995 43.0634 16.0554V16.0554ZM32.6154 28.6154C32.6154 29.0397 32.4468 29.4467 32.1468 29.7468C31.8467 30.0468 31.4397 30.2154 31.0154 30.2154H16.6154C16.1911 30.2154 15.7841 30.0468 15.484 29.7468C15.184 29.4467 15.0154 29.0397 15.0154 28.6154V19.0154C15.0154 18.591 15.184 18.1841 15.484 17.884C15.7841 17.584 16.1911 17.4154 16.6154 17.4154H31.0154C31.4397 17.4154 31.8467 17.584 32.1468 17.884C32.4468 18.1841 32.6154 18.591 32.6154 19.0154V28.6154ZM40.6154 27.6234L35.8154 25.2234V22.4074L40.6154 20.0074V27.6234Z" fill="white"/>
<circle cx="28" cy="24" r="22.5" stroke="white" stroke-width="3"/>
</g>
<defs>
<filter id="filter0_d_9_4" x="0" y="0" width="56" height="56" filterUnits="userSpaceOnUse" color-interpolation-filters="sRGB">
<feFlood flood-opacity="0" result="BackgroundImageFix"/>
<feColorMatrix in="SourceAlpha" type="matrix" values="0 0 0 0 0 0 0 0 0 0 0 0 0 0 0 0 0 0 127 0" result="hardAlpha"/>
<feOffset dy="4"/>
<feGaussianBlur stdDeviation="2"/>
<feComposite in2="hardAlpha" operator="out"/>
<feColorMatrix type="matrix" values="0 0 0 0 0 0 0 0 0 0 0 0 0 0 0 0 0 0 0.25 0"/>
<feBlend mode="normal" in2="BackgroundImageFix" result="effect1_dropShadow_9_4"/>
<feBlend mode="normal" in="SourceGraphic" in2="effect1_dropShadow_9_4" result="shape"/>
</filter>
</defs>
</svg>
