<svg width="38" height="32" viewBox="0 0 38 32" fill="none" xmlns="http://www.w3.org/2000/svg">
<path d="M20.9467 16.9468C22.2539 15.9183 23.208 14.508 23.6763 12.912C24.1446 11.316 24.1039 9.61377 23.5597 8.04204C23.0155 6.47031 21.995 5.10727 20.6401 4.14256C19.2852 3.17784 17.6633 2.65942 16 2.65942C14.3367 2.65942 12.7148 3.17784 11.3599 4.14256C10.005 5.10727 8.98446 6.47031 8.44028 8.04204C7.8961 9.61377 7.85535 11.316 8.32368 12.912C8.79201 14.508 9.74614 15.9183 11.0533 16.9468C8.81343 17.8441 6.85905 19.3326 5.39852 21.2533C3.93799 23.1741 3.02608 25.4552 2.76 27.8534C2.74074 28.0285 2.75615 28.2057 2.80536 28.3748C2.85457 28.544 2.93662 28.7018 3.04681 28.8392C3.26935 29.1167 3.59304 29.2945 3.94666 29.3334C4.30028 29.3723 4.65488 29.2691 4.93243 29.0466C5.20998 28.8241 5.38776 28.5004 5.42666 28.1468C5.71944 25.5403 6.96224 23.1332 8.91762 21.3851C10.873 19.6371 13.4039 18.6708 16.0267 18.6708C18.6495 18.6708 21.1803 19.6371 23.1357 21.3851C25.0911 23.1332 26.3339 25.5403 26.6267 28.1468C26.6629 28.4744 26.8192 28.777 27.0655 28.9961C27.3117 29.2153 27.6304 29.3354 27.96 29.3334H28.1067C28.4562 29.2932 28.7756 29.1165 28.9954 28.8418C29.2152 28.567 29.3175 28.2166 29.28 27.8668C29.0127 25.4617 28.0958 23.1747 26.6278 21.251C25.1598 19.3273 23.1959 17.8394 20.9467 16.9468ZM16 16.0001C14.9452 16.0001 13.914 15.6873 13.037 15.1013C12.1599 14.5152 11.4763 13.6823 11.0726 12.7077C10.669 11.7332 10.5634 10.6608 10.7691 9.62627C10.9749 8.59171 11.4829 7.6414 12.2288 6.89552C12.9746 6.14964 13.9249 5.64169 14.9595 5.4359C15.9941 5.23011 17.0664 5.33573 18.041 5.73939C19.0155 6.14306 19.8485 6.82665 20.4345 7.70371C21.0205 8.58077 21.3333 9.61192 21.3333 10.6668C21.3333 12.0812 20.7714 13.4378 19.7712 14.438C18.771 15.4382 17.4145 16.0001 16 16.0001Z" fill="black"/>
<path d="M36.66 14.775L35.715 14.46L36.16 13.57C36.2051 13.4768 36.2202 13.372 36.2032 13.2699C36.1862 13.1678 36.1379 13.0735 36.065 13L35 11.935C34.9261 11.861 34.8309 11.8121 34.7278 11.7951C34.6246 11.778 34.5187 11.7937 34.425 11.84L33.535 12.285L33.22 11.34C33.1867 11.2415 33.1236 11.1558 33.0393 11.0949C32.9551 11.0339 32.854 11.0008 32.75 11H31.25C31.1452 10.9997 31.0429 11.0324 30.9577 11.0934C30.8725 11.1544 30.8085 11.2407 30.775 11.34L30.46 12.285L29.57 11.84C29.4768 11.7949 29.372 11.7798 29.2699 11.7968C29.1678 11.8138 29.0735 11.8621 29 11.935L27.935 13C27.861 13.0739 27.8121 13.1691 27.7951 13.2722C27.778 13.3754 27.7937 13.4813 27.84 13.575L28.285 14.465L27.34 14.78C27.2415 14.8133 27.1558 14.8764 27.0949 14.9607C27.0339 15.0449 27.0008 15.146 27 15.25V16.75C26.9997 16.8548 27.0324 16.9571 27.0934 17.0423C27.1544 17.1276 27.2407 17.1915 27.34 17.225L28.285 17.54L27.84 18.43C27.7949 18.5232 27.7798 18.628 27.7968 18.7301C27.8138 18.8322 27.8621 18.9265 27.935 19L29 20.065C29.0739 20.139 29.1691 20.1879 29.2722 20.2049C29.3754 20.222 29.4813 20.2063 29.575 20.16L30.465 19.715L30.78 20.66C30.8135 20.7593 30.8775 20.8456 30.9627 20.9066C31.0479 20.9676 31.1502 21.0003 31.255 21H32.755C32.8598 21.0003 32.9621 20.9676 33.0473 20.9066C33.1326 20.8456 33.1965 20.7593 33.23 20.66L33.545 19.715L34.435 20.16C34.5276 20.204 34.6314 20.2184 34.7325 20.2015C34.8335 20.1845 34.9269 20.1368 35 20.065L36.065 19C36.139 18.9261 36.1879 18.8309 36.2049 18.7278C36.222 18.6246 36.2063 18.5187 36.16 18.425L35.715 17.535L36.66 17.22C36.7585 17.1867 36.8442 17.1236 36.9051 17.0393C36.9661 16.9551 36.9992 16.854 37 16.75V15.25C37.0003 15.1452 36.9676 15.0429 36.9066 14.9577C36.8456 14.8725 36.7593 14.8085 36.66 14.775ZM36 16.39L35.4 16.59C35.262 16.6348 35.1354 16.709 35.029 16.8076C34.9226 16.9061 34.8389 17.0266 34.7837 17.1608C34.7286 17.2949 34.7032 17.4395 34.7095 17.5844C34.7157 17.7293 34.7535 17.8711 34.82 18L35.105 18.57L34.555 19.12L34 18.82C33.8718 18.7561 33.7313 18.7205 33.5882 18.7157C33.445 18.7108 33.3024 18.7367 33.1702 18.7917C33.0379 18.8467 32.919 18.9295 32.8215 19.0344C32.724 19.1394 32.6501 19.264 32.605 19.4L32.405 20H31.61L31.41 19.4C31.3652 19.262 31.291 19.1354 31.1925 19.029C31.0939 18.9226 30.9734 18.8389 30.8392 18.7837C30.7051 18.7286 30.5605 18.7032 30.4156 18.7095C30.2707 18.7157 30.1289 18.7535 30 18.82L29.43 19.105L28.88 18.555L29.18 18C29.2465 17.8711 29.2843 17.7293 29.2905 17.5844C29.2968 17.4395 29.2715 17.2949 29.2163 17.1608C29.1611 17.0266 29.0774 16.9061 28.971 16.8076C28.8646 16.709 28.738 16.6348 28.6 16.59L28 16.39V15.61L28.6 15.41C28.738 15.3652 28.8646 15.291 28.971 15.1925C29.0774 15.0939 29.1611 14.9734 29.2163 14.8392C29.2715 14.7051 29.2968 14.5605 29.2905 14.4156C29.2843 14.2707 29.2465 14.1289 29.18 14L28.895 13.445L29.445 12.895L30 13.18C30.1289 13.2465 30.2707 13.2843 30.4156 13.2905C30.5605 13.2968 30.7051 13.2715 30.8392 13.2163C30.9734 13.1611 31.0939 13.0774 31.1925 12.971C31.291 12.8646 31.3652 12.738 31.41 12.6L31.61 12H32.39L32.59 12.6C32.6348 12.738 32.709 12.8646 32.8076 12.971C32.9061 13.0774 33.0266 13.1611 33.1608 13.2163C33.2949 13.2715 33.4395 13.2968 33.5844 13.2905C33.7293 13.2843 33.8711 13.2465 34 13.18L34.57 12.895L35.12 13.445L34.82 14C34.7561 14.1282 34.7205 14.2687 34.7157 14.4118C34.7108 14.555 34.7367 14.6976 34.7917 14.8298C34.8467 14.9621 34.9295 15.081 35.0344 15.1785C35.1394 15.276 35.264 15.3499 35.4 15.395L36 15.595V16.39ZM32 14C31.6044 14 31.2178 14.1173 30.8889 14.3371C30.56 14.5568 30.3036 14.8692 30.1522 15.2346C30.0009 15.6001 29.9613 16.0022 30.0384 16.3902C30.1156 16.7781 30.3061 17.1345 30.5858 17.4142C30.8655 17.6939 31.2219 17.8844 31.6098 17.9616C31.9978 18.0387 32.3999 17.9991 32.7654 17.8478C33.1308 17.6964 33.4432 17.44 33.6629 17.1111C33.8827 16.7822 34 16.3956 34 16C34 15.4696 33.7893 14.9609 33.4142 14.5858C33.0391 14.2107 32.5304 14 32 14ZM32 17C31.8022 17 31.6089 16.9414 31.4444 16.8315C31.28 16.7216 31.1518 16.5654 31.0761 16.3827C31.0004 16.2 30.9806 15.9989 31.0192 15.8049C31.0578 15.6109 31.153 15.4327 31.2929 15.2929C31.4327 15.153 31.6109 15.0578 31.8049 15.0192C31.9989 14.9806 32.2 15.0004 32.3827 15.0761C32.5654 15.1518 32.7216 15.28 32.8315 15.4444C32.9414 15.6089 33 15.8022 33 16C33 16.2652 32.8946 16.5196 32.7071 16.7071C32.5196 16.8946 32.2652 17 32 17Z" fill="black"/>
</svg>
