<svg width="21" height="17" viewBox="0 0 21 17" fill="none" xmlns="http://www.w3.org/2000/svg">
<path fill-rule="evenodd" clip-rule="evenodd" d="M0 5.57643C0 2.42585 2.764 0 6.00833 0C7.68072 0 9.15232 0.784162 10.2083 1.79881C11.2644 0.784162 12.7359 0 14.4083 0C17.6527 0 20.4167 2.42585 20.4167 5.57643C20.4167 7.73461 19.4963 9.63252 18.2212 11.2368C16.9483 12.8383 15.2833 14.1975 13.689 15.302C13.0801 15.7238 12.4641 16.113 11.9003 16.4001C11.3709 16.6697 10.7622 16.9167 10.2083 16.9167C9.65446 16.9167 9.04574 16.6697 8.51635 16.4001C7.95256 16.113 7.33654 15.7238 6.72762 15.302C5.13339 14.1975 3.46835 12.8383 2.19546 11.2368C0.920361 9.63252 0 7.73461 0 5.57643ZM6.00833 1.75C3.58254 1.75 1.75 3.53395 1.75 5.57643C1.75 7.21384 2.44509 8.73833 3.56544 10.1479C4.688 11.5603 6.19841 12.8064 7.7242 13.8635C8.30155 14.2634 8.84536 14.6038 9.31053 14.8407C9.81009 15.0951 10.0994 15.1667 10.2083 15.1667C10.3172 15.1667 10.6066 15.0951 11.1061 14.8407C11.5713 14.6038 12.1151 14.2634 12.6925 13.8635C14.2183 12.8064 15.7287 11.5603 16.8512 10.1479C17.9716 8.73833 18.6667 7.21384 18.6667 5.57643C18.6667 3.53395 16.8341 1.75 14.4083 1.75C13.0152 1.75 11.7143 2.58233 10.902 3.63874C10.7364 3.85415 10.4801 3.98039 10.2083 3.98039C9.93661 3.98039 9.6803 3.85415 9.51467 3.63874C8.7024 2.58233 7.40151 1.75 6.00833 1.75Z" fill="black"/>
</svg>
