<svg width="28" height="28" viewBox="0 0 28 28" fill="none" xmlns="http://www.w3.org/2000/svg">
<path d="M18.9467 14.9468C20.2539 13.9183 21.208 12.508 21.6763 10.912C22.1446 9.31603 22.1039 7.61377 21.5597 6.04204C21.0155 4.47031 19.995 3.10727 18.6401 2.14256C17.2852 1.17784 15.6633 0.659424 14 0.659424C12.3367 0.659424 10.7148 1.17784 9.3599 2.14256C8.00499 3.10727 6.98446 4.47031 6.44028 6.04204C5.8961 7.61377 5.85535 9.31603 6.32368 10.912C6.79201 12.508 7.74614 13.9183 9.05333 14.9468C6.81343 15.8441 4.85905 17.3325 3.39852 19.2533C1.93799 21.1741 1.02608 23.4552 0.759996 25.8534C0.740735 26.0285 0.756151 26.2057 0.805363 26.3748C0.854575 26.544 0.936619 26.7018 1.04681 26.8392C1.26935 27.1167 1.59304 27.2945 1.94666 27.3334C2.30028 27.3723 2.65488 27.2691 2.93243 27.0466C3.20998 26.8241 3.38776 26.5004 3.42666 26.1467C3.71944 23.5403 4.96224 21.1332 6.91762 19.3851C8.873 17.6371 11.4039 16.6708 14.0267 16.6708C16.6495 16.6708 19.1803 17.6371 21.1357 19.3851C23.0911 21.1332 24.3339 23.5403 24.6267 26.1467C24.6629 26.4744 24.8192 26.777 25.0655 26.9961C25.3117 27.2152 25.6304 27.3354 25.96 27.3334H26.1067C26.4562 27.2932 26.7756 27.1165 26.9954 26.8417C27.2152 26.567 27.3175 26.2166 27.28 25.8667C27.0127 23.4617 26.0958 21.1747 24.6278 19.251C23.1598 17.3273 21.1959 15.8394 18.9467 14.9468V14.9468ZM14 14.0001C12.9452 14.0001 11.914 13.6873 11.037 13.1013C10.1599 12.5152 9.47631 11.6823 9.07264 10.7077C8.66897 9.73319 8.56335 8.66084 8.76914 7.62627C8.97493 6.5917 9.48288 5.64139 10.2288 4.89551C10.9746 4.14963 11.9249 3.64168 12.9595 3.4359C13.9941 3.23011 15.0664 3.33573 16.041 3.73939C17.0155 4.14306 17.8485 4.82665 18.4345 5.70371C19.0205 6.58077 19.3333 7.61192 19.3333 8.66675C19.3333 10.0812 18.7714 11.4378 17.7712 12.438C16.771 13.4382 15.4145 14.0001 14 14.0001Z" fill="white"/>
</svg>
