<svg width="22" height="28" viewBox="0 0 22 28" fill="none" xmlns="http://www.w3.org/2000/svg">
<path d="M0.333313 14C0.333313 14.3536 0.473789 14.6928 0.723838 14.9428C0.973886 15.1928 1.31302 15.3333 1.66665 15.3333H11.7866L8.71998 18.3867C8.59501 18.5106 8.49582 18.6581 8.42812 18.8206C8.36043 18.983 8.32558 19.1573 8.32558 19.3333C8.32558 19.5093 8.36043 19.6836 8.42812 19.8461C8.49582 20.0086 8.59501 20.156 8.71998 20.28C8.84393 20.405 8.9914 20.5042 9.15388 20.5718C9.31636 20.6395 9.49063 20.6744 9.66665 20.6744C9.84266 20.6744 10.0169 20.6395 10.1794 20.5718C10.3419 20.5042 10.4894 20.405 10.6133 20.28L15.9466 14.9467C16.068 14.8199 16.1632 14.6703 16.2266 14.5067C16.36 14.182 16.36 13.8179 16.2266 13.4933C16.1632 13.3297 16.068 13.1801 15.9466 13.0533L10.6133 7.71999C10.489 7.59567 10.3414 7.49706 10.179 7.42978C10.0165 7.3625 9.84246 7.32787 9.66665 7.32787C9.49083 7.32787 9.31674 7.3625 9.15431 7.42978C8.99188 7.49706 8.8443 7.59567 8.71998 7.71999C8.59566 7.84431 8.49705 7.9919 8.42977 8.15432C8.36249 8.31675 8.32786 8.49084 8.32786 8.66666C8.32786 8.84247 8.36249 9.01656 8.42977 9.17899C8.49705 9.34142 8.59566 9.48901 8.71998 9.61332L11.7866 12.6667H1.66665C1.31302 12.6667 0.973886 12.8071 0.723838 13.0572C0.473789 13.3072 0.333313 13.6464 0.333313 14V14ZM17.6666 0.666656H4.33331C3.27245 0.666656 2.25503 1.08808 1.50489 1.83823C0.75474 2.58838 0.333313 3.60579 0.333313 4.66666V8.66666C0.333313 9.02028 0.473789 9.35942 0.723838 9.60947C0.973886 9.85951 1.31302 9.99999 1.66665 9.99999C2.02027 9.99999 2.35941 9.85951 2.60945 9.60947C2.8595 9.35942 2.99998 9.02028 2.99998 8.66666V4.66666C2.99998 4.31303 3.14046 3.9739 3.3905 3.72385C3.64055 3.4738 3.97969 3.33332 4.33331 3.33332H17.6666C18.0203 3.33332 18.3594 3.4738 18.6095 3.72385C18.8595 3.9739 19 4.31303 19 4.66666V23.3333C19 23.6869 18.8595 24.0261 18.6095 24.2761C18.3594 24.5262 18.0203 24.6667 17.6666 24.6667H4.33331C3.97969 24.6667 3.64055 24.5262 3.3905 24.2761C3.14046 24.0261 2.99998 23.6869 2.99998 23.3333V19.3333C2.99998 18.9797 2.8595 18.6406 2.60945 18.3905C2.35941 18.1405 2.02027 18 1.66665 18C1.31302 18 0.973886 18.1405 0.723838 18.3905C0.473789 18.6406 0.333313 18.9797 0.333313 19.3333V23.3333C0.333313 24.3942 0.75474 25.4116 1.50489 26.1618C2.25503 26.9119 3.27245 27.3333 4.33331 27.3333H17.6666C18.7275 27.3333 19.7449 26.9119 20.4951 26.1618C21.2452 25.4116 21.6666 24.3942 21.6666 23.3333V4.66666C21.6666 3.60579 21.2452 2.58838 20.4951 1.83823C19.7449 1.08808 18.7275 0.666656 17.6666 0.666656Z" fill="white"/>
</svg>
